<mxfile host="app.diagrams.net" modified="2024-05-04T11:33:52.132Z" agent="Mozilla/5.0 (X11; Linux x86_64) AppleWebKit/537.36 (KHTML, like Gecko) Chrome/124.0.0.0 Safari/537.36" etag="gezD4u_bvAzEiAMqZcSi" version="24.2.7" type="device">
  <diagram id="C5RBs43oDa-KdzZeNtuy" name="Page-1">
    <mxGraphModel dx="1766" dy="523" grid="1" gridSize="10" guides="1" tooltips="1" connect="1" arrows="1" fold="1" page="1" pageScale="1" pageWidth="827" pageHeight="1169" math="0" shadow="0">
      <root>
        <mxCell id="WIyWlLk6GJQsqaUBKTNV-0" />
        <mxCell id="WIyWlLk6GJQsqaUBKTNV-1" parent="WIyWlLk6GJQsqaUBKTNV-0" />
        <mxCell id="e_wXpyRoVg9-2sRk1f8f-16" value="" style="rounded=1;whiteSpace=wrap;html=1;strokeWidth=2;fillColor=#d5e8d4;strokeColor=#82b366;" vertex="1" parent="WIyWlLk6GJQsqaUBKTNV-1">
          <mxGeometry x="225" y="280" width="170" height="360" as="geometry" />
        </mxCell>
        <mxCell id="e_wXpyRoVg9-2sRk1f8f-11" value="" style="rounded=1;whiteSpace=wrap;html=1;strokeWidth=2;fillColor=#dae8fc;strokeColor=#6c8ebf;" vertex="1" parent="WIyWlLk6GJQsqaUBKTNV-1">
          <mxGeometry x="45" y="280" width="170" height="360" as="geometry" />
        </mxCell>
        <mxCell id="e_wXpyRoVg9-2sRk1f8f-6" style="edgeStyle=orthogonalEdgeStyle;rounded=0;orthogonalLoop=1;jettySize=auto;html=1;exitX=0.5;exitY=1;exitDx=0;exitDy=0;entryX=0.5;entryY=0;entryDx=0;entryDy=0;strokeWidth=2;" edge="1" parent="WIyWlLk6GJQsqaUBKTNV-1" source="e_wXpyRoVg9-2sRk1f8f-0" target="e_wXpyRoVg9-2sRk1f8f-1">
          <mxGeometry relative="1" as="geometry" />
        </mxCell>
        <mxCell id="e_wXpyRoVg9-2sRk1f8f-0" value="&lt;font style=&quot;font-size: 16px;&quot;&gt;2D Image&lt;/font&gt;" style="text;html=1;align=center;verticalAlign=middle;whiteSpace=wrap;rounded=0;" vertex="1" parent="WIyWlLk6GJQsqaUBKTNV-1">
          <mxGeometry x="80" y="227" width="100" height="30" as="geometry" />
        </mxCell>
        <mxCell id="e_wXpyRoVg9-2sRk1f8f-8" style="edgeStyle=orthogonalEdgeStyle;rounded=0;orthogonalLoop=1;jettySize=auto;html=1;exitX=0.5;exitY=1;exitDx=0;exitDy=0;entryX=0.5;entryY=0;entryDx=0;entryDy=0;strokeWidth=2;" edge="1" parent="WIyWlLk6GJQsqaUBKTNV-1" source="e_wXpyRoVg9-2sRk1f8f-1" target="e_wXpyRoVg9-2sRk1f8f-3">
          <mxGeometry relative="1" as="geometry" />
        </mxCell>
        <mxCell id="e_wXpyRoVg9-2sRk1f8f-1" value="&lt;font style=&quot;font-size: 16px;&quot;&gt;Image&amp;nbsp;&lt;/font&gt;&lt;div&gt;&lt;font style=&quot;font-size: 16px;&quot;&gt;Resizing&lt;/font&gt;&lt;/div&gt;" style="rounded=0;whiteSpace=wrap;html=1;strokeWidth=2;" vertex="1" parent="WIyWlLk6GJQsqaUBKTNV-1">
          <mxGeometry x="70" y="305" width="120" height="60" as="geometry" />
        </mxCell>
        <mxCell id="e_wXpyRoVg9-2sRk1f8f-9" style="edgeStyle=orthogonalEdgeStyle;rounded=0;orthogonalLoop=1;jettySize=auto;html=1;exitX=0.5;exitY=1;exitDx=0;exitDy=0;entryX=0.5;entryY=0;entryDx=0;entryDy=0;strokeWidth=2;" edge="1" parent="WIyWlLk6GJQsqaUBKTNV-1" source="e_wXpyRoVg9-2sRk1f8f-3" target="e_wXpyRoVg9-2sRk1f8f-5">
          <mxGeometry relative="1" as="geometry" />
        </mxCell>
        <mxCell id="e_wXpyRoVg9-2sRk1f8f-3" value="&lt;font style=&quot;font-size: 16px;&quot;&gt;Grayscale&lt;/font&gt;&lt;div&gt;&lt;font style=&quot;font-size: 16px;&quot;&gt;Conversion&lt;/font&gt;&lt;/div&gt;" style="rounded=0;whiteSpace=wrap;html=1;strokeWidth=2;" vertex="1" parent="WIyWlLk6GJQsqaUBKTNV-1">
          <mxGeometry x="70" y="390" width="120" height="60" as="geometry" />
        </mxCell>
        <mxCell id="e_wXpyRoVg9-2sRk1f8f-10" style="edgeStyle=orthogonalEdgeStyle;rounded=0;orthogonalLoop=1;jettySize=auto;html=1;exitX=0.5;exitY=1;exitDx=0;exitDy=0;entryX=0.5;entryY=0;entryDx=0;entryDy=0;strokeWidth=2;" edge="1" parent="WIyWlLk6GJQsqaUBKTNV-1" source="e_wXpyRoVg9-2sRk1f8f-5" target="e_wXpyRoVg9-2sRk1f8f-7">
          <mxGeometry relative="1" as="geometry" />
        </mxCell>
        <mxCell id="e_wXpyRoVg9-2sRk1f8f-5" value="&lt;span style=&quot;font-size: 16px;&quot;&gt;Normalization&lt;/span&gt;" style="rounded=0;whiteSpace=wrap;html=1;strokeWidth=2;" vertex="1" parent="WIyWlLk6GJQsqaUBKTNV-1">
          <mxGeometry x="70" y="480" width="120" height="60" as="geometry" />
        </mxCell>
        <mxCell id="e_wXpyRoVg9-2sRk1f8f-17" style="edgeStyle=orthogonalEdgeStyle;rounded=0;orthogonalLoop=1;jettySize=auto;html=1;exitX=0.5;exitY=1;exitDx=0;exitDy=0;entryX=0.5;entryY=1;entryDx=0;entryDy=0;strokeWidth=2;" edge="1" parent="WIyWlLk6GJQsqaUBKTNV-1" source="e_wXpyRoVg9-2sRk1f8f-7" target="e_wXpyRoVg9-2sRk1f8f-12">
          <mxGeometry relative="1" as="geometry">
            <Array as="points">
              <mxPoint x="130" y="660" />
              <mxPoint x="310" y="660" />
            </Array>
          </mxGeometry>
        </mxCell>
        <mxCell id="e_wXpyRoVg9-2sRk1f8f-7" value="&lt;span style=&quot;font-size: 16px;&quot;&gt;Flattening&amp;nbsp;&lt;/span&gt;&lt;div&gt;&lt;span style=&quot;font-size: 16px;&quot;&gt;and&lt;/span&gt;&lt;/div&gt;&lt;div&gt;&lt;span style=&quot;font-size: 16px;&quot;&gt;Shffuling&lt;/span&gt;&lt;/div&gt;" style="rounded=0;whiteSpace=wrap;html=1;strokeWidth=2;" vertex="1" parent="WIyWlLk6GJQsqaUBKTNV-1">
          <mxGeometry x="70" y="570" width="120" height="60" as="geometry" />
        </mxCell>
        <mxCell id="e_wXpyRoVg9-2sRk1f8f-34" style="edgeStyle=orthogonalEdgeStyle;rounded=0;orthogonalLoop=1;jettySize=auto;html=1;exitX=0.5;exitY=0;exitDx=0;exitDy=0;entryX=0.5;entryY=1;entryDx=0;entryDy=0;strokeWidth=2;" edge="1" parent="WIyWlLk6GJQsqaUBKTNV-1" source="e_wXpyRoVg9-2sRk1f8f-12" target="e_wXpyRoVg9-2sRk1f8f-28">
          <mxGeometry relative="1" as="geometry" />
        </mxCell>
        <mxCell id="e_wXpyRoVg9-2sRk1f8f-12" value="&lt;span style=&quot;font-size: 16px;&quot;&gt;Conv2D&lt;/span&gt;" style="rounded=0;whiteSpace=wrap;html=1;strokeWidth=2;" vertex="1" parent="WIyWlLk6GJQsqaUBKTNV-1">
          <mxGeometry x="250" y="588" width="120" height="40" as="geometry" />
        </mxCell>
        <mxCell id="e_wXpyRoVg9-2sRk1f8f-19" value="&lt;font style=&quot;font-size: 16px;&quot;&gt;Image Data&lt;/font&gt;" style="text;html=1;align=center;verticalAlign=middle;whiteSpace=wrap;rounded=0;" vertex="1" parent="WIyWlLk6GJQsqaUBKTNV-1">
          <mxGeometry x="170" y="660" width="100" height="30" as="geometry" />
        </mxCell>
        <mxCell id="e_wXpyRoVg9-2sRk1f8f-23" value="&lt;font style=&quot;font-size: 16px;&quot;&gt;Predict Probability&lt;/font&gt;" style="text;html=1;align=center;verticalAlign=middle;whiteSpace=wrap;rounded=0;" vertex="1" parent="WIyWlLk6GJQsqaUBKTNV-1">
          <mxGeometry x="260" y="220" width="100" height="44" as="geometry" />
        </mxCell>
        <mxCell id="e_wXpyRoVg9-2sRk1f8f-26" value="&lt;font style=&quot;font-size: 16px;&quot;&gt;Data&lt;/font&gt;&lt;div&gt;&lt;font style=&quot;font-size: 16px;&quot;&gt;Preprocessing&lt;/font&gt;&lt;/div&gt;" style="text;html=1;align=center;verticalAlign=middle;whiteSpace=wrap;rounded=0;" vertex="1" parent="WIyWlLk6GJQsqaUBKTNV-1">
          <mxGeometry x="-60" y="445" width="100" height="30" as="geometry" />
        </mxCell>
        <mxCell id="e_wXpyRoVg9-2sRk1f8f-27" value="&lt;span style=&quot;font-size: 16px;&quot;&gt;CNN&lt;/span&gt;&lt;div&gt;&lt;span style=&quot;font-size: 16px;&quot;&gt;Model&lt;/span&gt;&lt;/div&gt;" style="text;html=1;align=center;verticalAlign=middle;whiteSpace=wrap;rounded=0;" vertex="1" parent="WIyWlLk6GJQsqaUBKTNV-1">
          <mxGeometry x="380" y="445" width="100" height="30" as="geometry" />
        </mxCell>
        <mxCell id="e_wXpyRoVg9-2sRk1f8f-35" style="edgeStyle=orthogonalEdgeStyle;rounded=0;orthogonalLoop=1;jettySize=auto;html=1;exitX=0.5;exitY=0;exitDx=0;exitDy=0;entryX=0.5;entryY=1;entryDx=0;entryDy=0;strokeWidth=2;" edge="1" parent="WIyWlLk6GJQsqaUBKTNV-1" source="e_wXpyRoVg9-2sRk1f8f-28" target="e_wXpyRoVg9-2sRk1f8f-29">
          <mxGeometry relative="1" as="geometry" />
        </mxCell>
        <mxCell id="e_wXpyRoVg9-2sRk1f8f-28" value="&lt;span style=&quot;font-size: 16px;&quot;&gt;MaxPooling2D&lt;/span&gt;" style="rounded=0;whiteSpace=wrap;html=1;strokeWidth=2;" vertex="1" parent="WIyWlLk6GJQsqaUBKTNV-1">
          <mxGeometry x="250" y="530" width="120" height="40" as="geometry" />
        </mxCell>
        <mxCell id="e_wXpyRoVg9-2sRk1f8f-36" style="edgeStyle=orthogonalEdgeStyle;rounded=0;orthogonalLoop=1;jettySize=auto;html=1;exitX=0.5;exitY=0;exitDx=0;exitDy=0;entryX=0.5;entryY=1;entryDx=0;entryDy=0;strokeWidth=2;" edge="1" parent="WIyWlLk6GJQsqaUBKTNV-1" source="e_wXpyRoVg9-2sRk1f8f-29" target="e_wXpyRoVg9-2sRk1f8f-30">
          <mxGeometry relative="1" as="geometry" />
        </mxCell>
        <mxCell id="e_wXpyRoVg9-2sRk1f8f-29" value="&lt;span style=&quot;font-size: 16px;&quot;&gt;Faltten&lt;/span&gt;" style="rounded=0;whiteSpace=wrap;html=1;strokeWidth=2;" vertex="1" parent="WIyWlLk6GJQsqaUBKTNV-1">
          <mxGeometry x="250" y="470" width="120" height="40" as="geometry" />
        </mxCell>
        <mxCell id="e_wXpyRoVg9-2sRk1f8f-37" style="edgeStyle=orthogonalEdgeStyle;rounded=0;orthogonalLoop=1;jettySize=auto;html=1;exitX=0.5;exitY=0;exitDx=0;exitDy=0;entryX=0.5;entryY=1;entryDx=0;entryDy=0;strokeWidth=2;" edge="1" parent="WIyWlLk6GJQsqaUBKTNV-1" source="e_wXpyRoVg9-2sRk1f8f-30" target="e_wXpyRoVg9-2sRk1f8f-31">
          <mxGeometry relative="1" as="geometry" />
        </mxCell>
        <mxCell id="e_wXpyRoVg9-2sRk1f8f-30" value="&lt;span style=&quot;font-size: 16px;&quot;&gt;Dense&lt;/span&gt;" style="rounded=0;whiteSpace=wrap;html=1;strokeWidth=2;" vertex="1" parent="WIyWlLk6GJQsqaUBKTNV-1">
          <mxGeometry x="250" y="413" width="120" height="40" as="geometry" />
        </mxCell>
        <mxCell id="e_wXpyRoVg9-2sRk1f8f-40" style="edgeStyle=orthogonalEdgeStyle;rounded=0;orthogonalLoop=1;jettySize=auto;html=1;exitX=0.5;exitY=0;exitDx=0;exitDy=0;entryX=0.5;entryY=1;entryDx=0;entryDy=0;strokeWidth=2;" edge="1" parent="WIyWlLk6GJQsqaUBKTNV-1" source="e_wXpyRoVg9-2sRk1f8f-31" target="e_wXpyRoVg9-2sRk1f8f-39">
          <mxGeometry relative="1" as="geometry" />
        </mxCell>
        <mxCell id="e_wXpyRoVg9-2sRk1f8f-31" value="&lt;span style=&quot;font-size: 16px;&quot;&gt;Dropout&lt;/span&gt;" style="rounded=0;whiteSpace=wrap;html=1;strokeWidth=2;" vertex="1" parent="WIyWlLk6GJQsqaUBKTNV-1">
          <mxGeometry x="250" y="356" width="120" height="40" as="geometry" />
        </mxCell>
        <mxCell id="e_wXpyRoVg9-2sRk1f8f-41" style="edgeStyle=orthogonalEdgeStyle;rounded=0;orthogonalLoop=1;jettySize=auto;html=1;exitX=0.5;exitY=0;exitDx=0;exitDy=0;entryX=0.5;entryY=1;entryDx=0;entryDy=0;strokeWidth=2;" edge="1" parent="WIyWlLk6GJQsqaUBKTNV-1" source="e_wXpyRoVg9-2sRk1f8f-39" target="e_wXpyRoVg9-2sRk1f8f-23">
          <mxGeometry relative="1" as="geometry" />
        </mxCell>
        <mxCell id="e_wXpyRoVg9-2sRk1f8f-39" value="&lt;span style=&quot;font-size: 16px;&quot;&gt;Dense&lt;/span&gt;" style="rounded=0;whiteSpace=wrap;html=1;strokeWidth=2;" vertex="1" parent="WIyWlLk6GJQsqaUBKTNV-1">
          <mxGeometry x="250" y="300" width="120" height="40" as="geometry" />
        </mxCell>
      </root>
    </mxGraphModel>
  </diagram>
</mxfile>
